<mxfile host="app.diagrams.net" modified="2023-06-25T07:33:35.204Z" agent="Mozilla/5.0 (Windows NT 10.0; Win64; x64) AppleWebKit/537.36 (KHTML, like Gecko) Chrome/114.0.0.0 Safari/537.36 Edg/114.0.1823.58" etag="GXeMeMYchXO_482ZjAkj" version="21.3.3" type="github">
  <diagram name="第 1 页" id="3yovEKkghPk1bayiGnXV">
    <mxGraphModel dx="934" dy="561" grid="1" gridSize="10" guides="1" tooltips="1" connect="1" arrows="1" fold="1" page="1" pageScale="1" pageWidth="827" pageHeight="1169" math="0" shadow="0">
      <root>
        <mxCell id="0" />
        <mxCell id="1" parent="0" />
        <mxCell id="jrM-8Mynmm6wFJJVeg1S-40" style="rounded=0;orthogonalLoop=1;jettySize=auto;html=1;exitX=0.5;exitY=1;exitDx=0;exitDy=0;" edge="1" parent="1" source="jrM-8Mynmm6wFJJVeg1S-1" target="jrM-8Mynmm6wFJJVeg1S-4">
          <mxGeometry relative="1" as="geometry" />
        </mxCell>
        <mxCell id="jrM-8Mynmm6wFJJVeg1S-1" value="开始" style="rounded=1;whiteSpace=wrap;html=1;" vertex="1" parent="1">
          <mxGeometry x="207" y="60" width="100" height="40" as="geometry" />
        </mxCell>
        <mxCell id="jrM-8Mynmm6wFJJVeg1S-2" value="结束" style="rounded=1;whiteSpace=wrap;html=1;" vertex="1" parent="1">
          <mxGeometry x="745" y="500" width="100" height="40" as="geometry" />
        </mxCell>
        <mxCell id="jrM-8Mynmm6wFJJVeg1S-41" style="rounded=0;orthogonalLoop=1;jettySize=auto;html=1;exitX=0.5;exitY=1;exitDx=0;exitDy=0;fontSize=12;" edge="1" parent="1" source="jrM-8Mynmm6wFJJVeg1S-3" target="jrM-8Mynmm6wFJJVeg1S-22">
          <mxGeometry relative="1" as="geometry" />
        </mxCell>
        <mxCell id="jrM-8Mynmm6wFJJVeg1S-79" style="rounded=0;orthogonalLoop=1;jettySize=auto;html=1;exitX=1;exitY=0.5;exitDx=0;exitDy=0;entryX=0;entryY=0.5;entryDx=0;entryDy=0;" edge="1" parent="1" source="jrM-8Mynmm6wFJJVeg1S-3" target="jrM-8Mynmm6wFJJVeg1S-61">
          <mxGeometry relative="1" as="geometry" />
        </mxCell>
        <mxCell id="jrM-8Mynmm6wFJJVeg1S-3" value="" style="rounded=0;whiteSpace=wrap;html=1;" vertex="1" parent="1">
          <mxGeometry x="142" y="132" width="230" height="90" as="geometry" />
        </mxCell>
        <mxCell id="jrM-8Mynmm6wFJJVeg1S-4" value="A.需求分析" style="text;html=1;strokeColor=none;fillColor=none;align=center;verticalAlign=middle;whiteSpace=wrap;rounded=0;" vertex="1" parent="1">
          <mxGeometry x="225" y="132" width="64" height="20" as="geometry" />
        </mxCell>
        <mxCell id="jrM-8Mynmm6wFJJVeg1S-5" style="edgeStyle=orthogonalEdgeStyle;rounded=0;orthogonalLoop=1;jettySize=auto;html=1;exitX=0.5;exitY=1;exitDx=0;exitDy=0;fontSize=12;" edge="1" parent="1" source="jrM-8Mynmm6wFJJVeg1S-4" target="jrM-8Mynmm6wFJJVeg1S-4">
          <mxGeometry relative="1" as="geometry" />
        </mxCell>
        <mxCell id="jrM-8Mynmm6wFJJVeg1S-6" value="" style="shape=table;startSize=0;container=1;collapsible=0;childLayout=tableLayout;fontSize=12;" vertex="1" parent="1">
          <mxGeometry x="256" y="154" width="110" height="61" as="geometry" />
        </mxCell>
        <mxCell id="jrM-8Mynmm6wFJJVeg1S-7" value="" style="shape=tableRow;horizontal=0;startSize=0;swimlaneHead=0;swimlaneBody=0;strokeColor=inherit;top=0;left=0;bottom=0;right=0;collapsible=0;dropTarget=0;fillColor=none;points=[[0,0.5],[1,0.5]];portConstraint=eastwest;fontSize=12;" vertex="1" parent="jrM-8Mynmm6wFJJVeg1S-6">
          <mxGeometry width="110" height="21" as="geometry" />
        </mxCell>
        <mxCell id="jrM-8Mynmm6wFJJVeg1S-8" value="" style="shape=partialRectangle;html=1;whiteSpace=wrap;connectable=0;strokeColor=inherit;overflow=hidden;fillColor=none;top=0;left=0;bottom=0;right=0;pointerEvents=1;fontSize=12;" vertex="1" parent="jrM-8Mynmm6wFJJVeg1S-7">
          <mxGeometry width="35" height="21" as="geometry">
            <mxRectangle width="35" height="21" as="alternateBounds" />
          </mxGeometry>
        </mxCell>
        <mxCell id="jrM-8Mynmm6wFJJVeg1S-9" value="&lt;font style=&quot;font-size: 12px;&quot;&gt;开始&lt;/font&gt;" style="shape=partialRectangle;html=1;whiteSpace=wrap;connectable=0;strokeColor=inherit;overflow=hidden;fillColor=none;top=0;left=0;bottom=0;right=0;pointerEvents=1;fontSize=12;" vertex="1" parent="jrM-8Mynmm6wFJJVeg1S-7">
          <mxGeometry x="35" width="40" height="21" as="geometry">
            <mxRectangle width="40" height="21" as="alternateBounds" />
          </mxGeometry>
        </mxCell>
        <mxCell id="jrM-8Mynmm6wFJJVeg1S-10" value="&lt;font style=&quot;font-size: 12px;&quot;&gt;结束&lt;/font&gt;" style="shape=partialRectangle;html=1;whiteSpace=wrap;connectable=0;strokeColor=inherit;overflow=hidden;fillColor=none;top=0;left=0;bottom=0;right=0;pointerEvents=1;fontSize=12;" vertex="1" parent="jrM-8Mynmm6wFJJVeg1S-7">
          <mxGeometry x="75" width="35" height="21" as="geometry">
            <mxRectangle width="35" height="21" as="alternateBounds" />
          </mxGeometry>
        </mxCell>
        <mxCell id="jrM-8Mynmm6wFJJVeg1S-11" value="" style="shape=tableRow;horizontal=0;startSize=0;swimlaneHead=0;swimlaneBody=0;strokeColor=inherit;top=0;left=0;bottom=0;right=0;collapsible=0;dropTarget=0;fillColor=none;points=[[0,0.5],[1,0.5]];portConstraint=eastwest;fontSize=12;" vertex="1" parent="jrM-8Mynmm6wFJJVeg1S-6">
          <mxGeometry y="21" width="110" height="20" as="geometry" />
        </mxCell>
        <mxCell id="jrM-8Mynmm6wFJJVeg1S-12" value="&lt;font style=&quot;font-size: 12px;&quot;&gt;最早&lt;/font&gt;" style="shape=partialRectangle;html=1;whiteSpace=wrap;connectable=0;strokeColor=inherit;overflow=hidden;fillColor=none;top=0;left=0;bottom=0;right=0;pointerEvents=1;fontSize=12;" vertex="1" parent="jrM-8Mynmm6wFJJVeg1S-11">
          <mxGeometry width="35" height="20" as="geometry">
            <mxRectangle width="35" height="20" as="alternateBounds" />
          </mxGeometry>
        </mxCell>
        <mxCell id="jrM-8Mynmm6wFJJVeg1S-13" value="&lt;font style=&quot;font-size: 12px;&quot;&gt;0&lt;/font&gt;" style="shape=partialRectangle;html=1;whiteSpace=wrap;connectable=0;strokeColor=inherit;overflow=hidden;fillColor=none;top=0;left=0;bottom=0;right=0;pointerEvents=1;fontSize=12;align=center;" vertex="1" parent="jrM-8Mynmm6wFJJVeg1S-11">
          <mxGeometry x="35" width="40" height="20" as="geometry">
            <mxRectangle width="40" height="20" as="alternateBounds" />
          </mxGeometry>
        </mxCell>
        <mxCell id="jrM-8Mynmm6wFJJVeg1S-14" value="6" style="shape=partialRectangle;html=1;whiteSpace=wrap;connectable=0;strokeColor=inherit;overflow=hidden;fillColor=none;top=0;left=0;bottom=0;right=0;pointerEvents=1;fontSize=12;align=center;" vertex="1" parent="jrM-8Mynmm6wFJJVeg1S-11">
          <mxGeometry x="75" width="35" height="20" as="geometry">
            <mxRectangle width="35" height="20" as="alternateBounds" />
          </mxGeometry>
        </mxCell>
        <mxCell id="jrM-8Mynmm6wFJJVeg1S-15" value="" style="shape=tableRow;horizontal=0;startSize=0;swimlaneHead=0;swimlaneBody=0;strokeColor=inherit;top=0;left=0;bottom=0;right=0;collapsible=0;dropTarget=0;fillColor=none;points=[[0,0.5],[1,0.5]];portConstraint=eastwest;fontSize=12;" vertex="1" parent="jrM-8Mynmm6wFJJVeg1S-6">
          <mxGeometry y="41" width="110" height="20" as="geometry" />
        </mxCell>
        <mxCell id="jrM-8Mynmm6wFJJVeg1S-16" value="&lt;font style=&quot;font-size: 12px;&quot;&gt;最晚&lt;/font&gt;" style="shape=partialRectangle;html=1;whiteSpace=wrap;connectable=0;strokeColor=inherit;overflow=hidden;fillColor=none;top=0;left=0;bottom=0;right=0;pointerEvents=1;fontSize=12;" vertex="1" parent="jrM-8Mynmm6wFJJVeg1S-15">
          <mxGeometry width="35" height="20" as="geometry">
            <mxRectangle width="35" height="20" as="alternateBounds" />
          </mxGeometry>
        </mxCell>
        <mxCell id="jrM-8Mynmm6wFJJVeg1S-17" value="3" style="shape=partialRectangle;html=1;whiteSpace=wrap;connectable=0;strokeColor=inherit;overflow=hidden;fillColor=none;top=0;left=0;bottom=0;right=0;pointerEvents=1;fontSize=12;" vertex="1" parent="jrM-8Mynmm6wFJJVeg1S-15">
          <mxGeometry x="35" width="40" height="20" as="geometry">
            <mxRectangle width="40" height="20" as="alternateBounds" />
          </mxGeometry>
        </mxCell>
        <mxCell id="jrM-8Mynmm6wFJJVeg1S-18" value="9" style="shape=partialRectangle;html=1;whiteSpace=wrap;connectable=0;strokeColor=inherit;overflow=hidden;fillColor=none;top=0;left=0;bottom=0;right=0;pointerEvents=1;fontSize=12;" vertex="1" parent="jrM-8Mynmm6wFJJVeg1S-15">
          <mxGeometry x="75" width="35" height="20" as="geometry">
            <mxRectangle width="35" height="20" as="alternateBounds" />
          </mxGeometry>
        </mxCell>
        <mxCell id="jrM-8Mynmm6wFJJVeg1S-19" value="持续时间：6" style="text;html=1;strokeColor=none;fillColor=none;align=center;verticalAlign=middle;whiteSpace=wrap;rounded=0;" vertex="1" parent="1">
          <mxGeometry x="152" y="164" width="81" height="20" as="geometry" />
        </mxCell>
        <mxCell id="jrM-8Mynmm6wFJJVeg1S-20" value="缓冲时间：3" style="text;html=1;strokeColor=none;fillColor=none;align=center;verticalAlign=middle;whiteSpace=wrap;rounded=0;" vertex="1" parent="1">
          <mxGeometry x="152" y="188" width="81" height="20" as="geometry" />
        </mxCell>
        <mxCell id="jrM-8Mynmm6wFJJVeg1S-98" style="rounded=0;orthogonalLoop=1;jettySize=auto;html=1;exitX=0.5;exitY=1;exitDx=0;exitDy=0;fontSize=12;" edge="1" parent="1" source="jrM-8Mynmm6wFJJVeg1S-21" target="jrM-8Mynmm6wFJJVeg1S-81">
          <mxGeometry relative="1" as="geometry" />
        </mxCell>
        <mxCell id="jrM-8Mynmm6wFJJVeg1S-21" value="" style="rounded=0;whiteSpace=wrap;html=1;" vertex="1" parent="1">
          <mxGeometry x="142" y="250" width="230" height="90" as="geometry" />
        </mxCell>
        <mxCell id="jrM-8Mynmm6wFJJVeg1S-22" value="B.软件设计" style="text;html=1;strokeColor=none;fillColor=none;align=center;verticalAlign=middle;whiteSpace=wrap;rounded=0;" vertex="1" parent="1">
          <mxGeometry x="225" y="250" width="64" height="20" as="geometry" />
        </mxCell>
        <mxCell id="jrM-8Mynmm6wFJJVeg1S-23" style="edgeStyle=orthogonalEdgeStyle;rounded=0;orthogonalLoop=1;jettySize=auto;html=1;exitX=0.5;exitY=1;exitDx=0;exitDy=0;fontSize=12;" edge="1" parent="1" source="jrM-8Mynmm6wFJJVeg1S-22" target="jrM-8Mynmm6wFJJVeg1S-22">
          <mxGeometry relative="1" as="geometry" />
        </mxCell>
        <mxCell id="jrM-8Mynmm6wFJJVeg1S-24" value="" style="shape=table;startSize=0;container=1;collapsible=0;childLayout=tableLayout;fontSize=12;" vertex="1" parent="1">
          <mxGeometry x="256" y="272" width="110" height="61" as="geometry" />
        </mxCell>
        <mxCell id="jrM-8Mynmm6wFJJVeg1S-25" value="" style="shape=tableRow;horizontal=0;startSize=0;swimlaneHead=0;swimlaneBody=0;strokeColor=inherit;top=0;left=0;bottom=0;right=0;collapsible=0;dropTarget=0;fillColor=none;points=[[0,0.5],[1,0.5]];portConstraint=eastwest;fontSize=12;" vertex="1" parent="jrM-8Mynmm6wFJJVeg1S-24">
          <mxGeometry width="110" height="21" as="geometry" />
        </mxCell>
        <mxCell id="jrM-8Mynmm6wFJJVeg1S-26" value="" style="shape=partialRectangle;html=1;whiteSpace=wrap;connectable=0;strokeColor=inherit;overflow=hidden;fillColor=none;top=0;left=0;bottom=0;right=0;pointerEvents=1;fontSize=12;" vertex="1" parent="jrM-8Mynmm6wFJJVeg1S-25">
          <mxGeometry width="35" height="21" as="geometry">
            <mxRectangle width="35" height="21" as="alternateBounds" />
          </mxGeometry>
        </mxCell>
        <mxCell id="jrM-8Mynmm6wFJJVeg1S-27" value="&lt;font style=&quot;font-size: 12px;&quot;&gt;开始&lt;/font&gt;" style="shape=partialRectangle;html=1;whiteSpace=wrap;connectable=0;strokeColor=inherit;overflow=hidden;fillColor=none;top=0;left=0;bottom=0;right=0;pointerEvents=1;fontSize=12;" vertex="1" parent="jrM-8Mynmm6wFJJVeg1S-25">
          <mxGeometry x="35" width="40" height="21" as="geometry">
            <mxRectangle width="40" height="21" as="alternateBounds" />
          </mxGeometry>
        </mxCell>
        <mxCell id="jrM-8Mynmm6wFJJVeg1S-28" value="&lt;font style=&quot;font-size: 12px;&quot;&gt;结束&lt;/font&gt;" style="shape=partialRectangle;html=1;whiteSpace=wrap;connectable=0;strokeColor=inherit;overflow=hidden;fillColor=none;top=0;left=0;bottom=0;right=0;pointerEvents=1;fontSize=12;" vertex="1" parent="jrM-8Mynmm6wFJJVeg1S-25">
          <mxGeometry x="75" width="35" height="21" as="geometry">
            <mxRectangle width="35" height="21" as="alternateBounds" />
          </mxGeometry>
        </mxCell>
        <mxCell id="jrM-8Mynmm6wFJJVeg1S-29" value="" style="shape=tableRow;horizontal=0;startSize=0;swimlaneHead=0;swimlaneBody=0;strokeColor=inherit;top=0;left=0;bottom=0;right=0;collapsible=0;dropTarget=0;fillColor=none;points=[[0,0.5],[1,0.5]];portConstraint=eastwest;fontSize=12;" vertex="1" parent="jrM-8Mynmm6wFJJVeg1S-24">
          <mxGeometry y="21" width="110" height="20" as="geometry" />
        </mxCell>
        <mxCell id="jrM-8Mynmm6wFJJVeg1S-30" value="&lt;font style=&quot;font-size: 12px;&quot;&gt;最早&lt;/font&gt;" style="shape=partialRectangle;html=1;whiteSpace=wrap;connectable=0;strokeColor=inherit;overflow=hidden;fillColor=none;top=0;left=0;bottom=0;right=0;pointerEvents=1;fontSize=12;" vertex="1" parent="jrM-8Mynmm6wFJJVeg1S-29">
          <mxGeometry width="35" height="20" as="geometry">
            <mxRectangle width="35" height="20" as="alternateBounds" />
          </mxGeometry>
        </mxCell>
        <mxCell id="jrM-8Mynmm6wFJJVeg1S-31" value="&lt;font style=&quot;font-size: 12px;&quot;&gt;6&lt;/font&gt;" style="shape=partialRectangle;html=1;whiteSpace=wrap;connectable=0;strokeColor=inherit;overflow=hidden;fillColor=none;top=0;left=0;bottom=0;right=0;pointerEvents=1;fontSize=12;" vertex="1" parent="jrM-8Mynmm6wFJJVeg1S-29">
          <mxGeometry x="35" width="40" height="20" as="geometry">
            <mxRectangle width="40" height="20" as="alternateBounds" />
          </mxGeometry>
        </mxCell>
        <mxCell id="jrM-8Mynmm6wFJJVeg1S-32" value="16" style="shape=partialRectangle;html=1;whiteSpace=wrap;connectable=0;strokeColor=inherit;overflow=hidden;fillColor=none;top=0;left=0;bottom=0;right=0;pointerEvents=1;fontSize=12;" vertex="1" parent="jrM-8Mynmm6wFJJVeg1S-29">
          <mxGeometry x="75" width="35" height="20" as="geometry">
            <mxRectangle width="35" height="20" as="alternateBounds" />
          </mxGeometry>
        </mxCell>
        <mxCell id="jrM-8Mynmm6wFJJVeg1S-33" value="" style="shape=tableRow;horizontal=0;startSize=0;swimlaneHead=0;swimlaneBody=0;strokeColor=inherit;top=0;left=0;bottom=0;right=0;collapsible=0;dropTarget=0;fillColor=none;points=[[0,0.5],[1,0.5]];portConstraint=eastwest;fontSize=12;" vertex="1" parent="jrM-8Mynmm6wFJJVeg1S-24">
          <mxGeometry y="41" width="110" height="20" as="geometry" />
        </mxCell>
        <mxCell id="jrM-8Mynmm6wFJJVeg1S-34" value="&lt;font style=&quot;font-size: 12px;&quot;&gt;最晚&lt;/font&gt;" style="shape=partialRectangle;html=1;whiteSpace=wrap;connectable=0;strokeColor=inherit;overflow=hidden;fillColor=none;top=0;left=0;bottom=0;right=0;pointerEvents=1;fontSize=12;" vertex="1" parent="jrM-8Mynmm6wFJJVeg1S-33">
          <mxGeometry width="35" height="20" as="geometry">
            <mxRectangle width="35" height="20" as="alternateBounds" />
          </mxGeometry>
        </mxCell>
        <mxCell id="jrM-8Mynmm6wFJJVeg1S-35" value="9" style="shape=partialRectangle;html=1;whiteSpace=wrap;connectable=0;strokeColor=inherit;overflow=hidden;fillColor=none;top=0;left=0;bottom=0;right=0;pointerEvents=1;fontSize=12;" vertex="1" parent="jrM-8Mynmm6wFJJVeg1S-33">
          <mxGeometry x="35" width="40" height="20" as="geometry">
            <mxRectangle width="40" height="20" as="alternateBounds" />
          </mxGeometry>
        </mxCell>
        <mxCell id="jrM-8Mynmm6wFJJVeg1S-36" value="19" style="shape=partialRectangle;html=1;whiteSpace=wrap;connectable=0;strokeColor=inherit;overflow=hidden;fillColor=none;top=0;left=0;bottom=0;right=0;pointerEvents=1;fontSize=12;" vertex="1" parent="jrM-8Mynmm6wFJJVeg1S-33">
          <mxGeometry x="75" width="35" height="20" as="geometry">
            <mxRectangle width="35" height="20" as="alternateBounds" />
          </mxGeometry>
        </mxCell>
        <mxCell id="jrM-8Mynmm6wFJJVeg1S-37" value="持续时间：10" style="text;html=1;strokeColor=none;fillColor=none;align=center;verticalAlign=middle;whiteSpace=wrap;rounded=0;" vertex="1" parent="1">
          <mxGeometry x="152" y="282" width="81" height="20" as="geometry" />
        </mxCell>
        <mxCell id="jrM-8Mynmm6wFJJVeg1S-38" value="缓冲时间：3" style="text;html=1;strokeColor=none;fillColor=none;align=center;verticalAlign=middle;whiteSpace=wrap;rounded=0;" vertex="1" parent="1">
          <mxGeometry x="152" y="306" width="81" height="20" as="geometry" />
        </mxCell>
        <mxCell id="jrM-8Mynmm6wFJJVeg1S-117" style="rounded=0;orthogonalLoop=1;jettySize=auto;html=1;exitX=0.5;exitY=1;exitDx=0;exitDy=0;fontSize=12;" edge="1" parent="1" source="jrM-8Mynmm6wFJJVeg1S-61" target="jrM-8Mynmm6wFJJVeg1S-100">
          <mxGeometry relative="1" as="geometry" />
        </mxCell>
        <mxCell id="jrM-8Mynmm6wFJJVeg1S-61" value="" style="rounded=0;whiteSpace=wrap;html=1;" vertex="1" parent="1">
          <mxGeometry x="420" y="132" width="230" height="90" as="geometry" />
        </mxCell>
        <mxCell id="jrM-8Mynmm6wFJJVeg1S-62" value="C.测试案例编写" style="text;html=1;strokeColor=none;fillColor=none;align=center;verticalAlign=middle;whiteSpace=wrap;rounded=0;" vertex="1" parent="1">
          <mxGeometry x="491.5" y="132" width="87" height="20" as="geometry" />
        </mxCell>
        <mxCell id="jrM-8Mynmm6wFJJVeg1S-63" style="edgeStyle=orthogonalEdgeStyle;rounded=0;orthogonalLoop=1;jettySize=auto;html=1;exitX=0.5;exitY=1;exitDx=0;exitDy=0;fontSize=12;" edge="1" parent="1" source="jrM-8Mynmm6wFJJVeg1S-62" target="jrM-8Mynmm6wFJJVeg1S-62">
          <mxGeometry relative="1" as="geometry" />
        </mxCell>
        <mxCell id="jrM-8Mynmm6wFJJVeg1S-64" value="" style="shape=table;startSize=0;container=1;collapsible=0;childLayout=tableLayout;fontSize=12;" vertex="1" parent="1">
          <mxGeometry x="534" y="154" width="110" height="61" as="geometry" />
        </mxCell>
        <mxCell id="jrM-8Mynmm6wFJJVeg1S-65" value="" style="shape=tableRow;horizontal=0;startSize=0;swimlaneHead=0;swimlaneBody=0;strokeColor=inherit;top=0;left=0;bottom=0;right=0;collapsible=0;dropTarget=0;fillColor=none;points=[[0,0.5],[1,0.5]];portConstraint=eastwest;fontSize=12;" vertex="1" parent="jrM-8Mynmm6wFJJVeg1S-64">
          <mxGeometry width="110" height="21" as="geometry" />
        </mxCell>
        <mxCell id="jrM-8Mynmm6wFJJVeg1S-66" value="" style="shape=partialRectangle;html=1;whiteSpace=wrap;connectable=0;strokeColor=inherit;overflow=hidden;fillColor=none;top=0;left=0;bottom=0;right=0;pointerEvents=1;fontSize=12;" vertex="1" parent="jrM-8Mynmm6wFJJVeg1S-65">
          <mxGeometry width="35" height="21" as="geometry">
            <mxRectangle width="35" height="21" as="alternateBounds" />
          </mxGeometry>
        </mxCell>
        <mxCell id="jrM-8Mynmm6wFJJVeg1S-67" value="&lt;font style=&quot;font-size: 12px;&quot;&gt;开始&lt;/font&gt;" style="shape=partialRectangle;html=1;whiteSpace=wrap;connectable=0;strokeColor=inherit;overflow=hidden;fillColor=none;top=0;left=0;bottom=0;right=0;pointerEvents=1;fontSize=12;" vertex="1" parent="jrM-8Mynmm6wFJJVeg1S-65">
          <mxGeometry x="35" width="40" height="21" as="geometry">
            <mxRectangle width="40" height="21" as="alternateBounds" />
          </mxGeometry>
        </mxCell>
        <mxCell id="jrM-8Mynmm6wFJJVeg1S-68" value="&lt;font style=&quot;font-size: 12px;&quot;&gt;结束&lt;/font&gt;" style="shape=partialRectangle;html=1;whiteSpace=wrap;connectable=0;strokeColor=inherit;overflow=hidden;fillColor=none;top=0;left=0;bottom=0;right=0;pointerEvents=1;fontSize=12;" vertex="1" parent="jrM-8Mynmm6wFJJVeg1S-65">
          <mxGeometry x="75" width="35" height="21" as="geometry">
            <mxRectangle width="35" height="21" as="alternateBounds" />
          </mxGeometry>
        </mxCell>
        <mxCell id="jrM-8Mynmm6wFJJVeg1S-69" value="" style="shape=tableRow;horizontal=0;startSize=0;swimlaneHead=0;swimlaneBody=0;strokeColor=inherit;top=0;left=0;bottom=0;right=0;collapsible=0;dropTarget=0;fillColor=none;points=[[0,0.5],[1,0.5]];portConstraint=eastwest;fontSize=12;" vertex="1" parent="jrM-8Mynmm6wFJJVeg1S-64">
          <mxGeometry y="21" width="110" height="20" as="geometry" />
        </mxCell>
        <mxCell id="jrM-8Mynmm6wFJJVeg1S-70" value="&lt;font style=&quot;font-size: 12px;&quot;&gt;最早&lt;/font&gt;" style="shape=partialRectangle;html=1;whiteSpace=wrap;connectable=0;strokeColor=inherit;overflow=hidden;fillColor=none;top=0;left=0;bottom=0;right=0;pointerEvents=1;fontSize=12;" vertex="1" parent="jrM-8Mynmm6wFJJVeg1S-69">
          <mxGeometry width="35" height="20" as="geometry">
            <mxRectangle width="35" height="20" as="alternateBounds" />
          </mxGeometry>
        </mxCell>
        <mxCell id="jrM-8Mynmm6wFJJVeg1S-71" value="&lt;font style=&quot;font-size: 12px;&quot;&gt;6&lt;/font&gt;" style="shape=partialRectangle;html=1;whiteSpace=wrap;connectable=0;strokeColor=inherit;overflow=hidden;fillColor=none;top=0;left=0;bottom=0;right=0;pointerEvents=1;fontSize=12;" vertex="1" parent="jrM-8Mynmm6wFJJVeg1S-69">
          <mxGeometry x="35" width="40" height="20" as="geometry">
            <mxRectangle width="40" height="20" as="alternateBounds" />
          </mxGeometry>
        </mxCell>
        <mxCell id="jrM-8Mynmm6wFJJVeg1S-72" value="21" style="shape=partialRectangle;html=1;whiteSpace=wrap;connectable=0;strokeColor=inherit;overflow=hidden;fillColor=none;top=0;left=0;bottom=0;right=0;pointerEvents=1;fontSize=12;" vertex="1" parent="jrM-8Mynmm6wFJJVeg1S-69">
          <mxGeometry x="75" width="35" height="20" as="geometry">
            <mxRectangle width="35" height="20" as="alternateBounds" />
          </mxGeometry>
        </mxCell>
        <mxCell id="jrM-8Mynmm6wFJJVeg1S-73" value="" style="shape=tableRow;horizontal=0;startSize=0;swimlaneHead=0;swimlaneBody=0;strokeColor=inherit;top=0;left=0;bottom=0;right=0;collapsible=0;dropTarget=0;fillColor=none;points=[[0,0.5],[1,0.5]];portConstraint=eastwest;fontSize=12;" vertex="1" parent="jrM-8Mynmm6wFJJVeg1S-64">
          <mxGeometry y="41" width="110" height="20" as="geometry" />
        </mxCell>
        <mxCell id="jrM-8Mynmm6wFJJVeg1S-74" value="&lt;font style=&quot;font-size: 12px;&quot;&gt;最晚&lt;/font&gt;" style="shape=partialRectangle;html=1;whiteSpace=wrap;connectable=0;strokeColor=inherit;overflow=hidden;fillColor=none;top=0;left=0;bottom=0;right=0;pointerEvents=1;fontSize=12;" vertex="1" parent="jrM-8Mynmm6wFJJVeg1S-73">
          <mxGeometry width="35" height="20" as="geometry">
            <mxRectangle width="35" height="20" as="alternateBounds" />
          </mxGeometry>
        </mxCell>
        <mxCell id="jrM-8Mynmm6wFJJVeg1S-75" value="24" style="shape=partialRectangle;html=1;whiteSpace=wrap;connectable=0;strokeColor=inherit;overflow=hidden;fillColor=none;top=0;left=0;bottom=0;right=0;pointerEvents=1;fontSize=12;" vertex="1" parent="jrM-8Mynmm6wFJJVeg1S-73">
          <mxGeometry x="35" width="40" height="20" as="geometry">
            <mxRectangle width="40" height="20" as="alternateBounds" />
          </mxGeometry>
        </mxCell>
        <mxCell id="jrM-8Mynmm6wFJJVeg1S-76" value="39" style="shape=partialRectangle;html=1;whiteSpace=wrap;connectable=0;strokeColor=inherit;overflow=hidden;fillColor=none;top=0;left=0;bottom=0;right=0;pointerEvents=1;fontSize=12;" vertex="1" parent="jrM-8Mynmm6wFJJVeg1S-73">
          <mxGeometry x="75" width="35" height="20" as="geometry">
            <mxRectangle width="35" height="20" as="alternateBounds" />
          </mxGeometry>
        </mxCell>
        <mxCell id="jrM-8Mynmm6wFJJVeg1S-77" value="持续时间：15" style="text;html=1;strokeColor=none;fillColor=none;align=center;verticalAlign=middle;whiteSpace=wrap;rounded=0;" vertex="1" parent="1">
          <mxGeometry x="430" y="164" width="81" height="20" as="geometry" />
        </mxCell>
        <mxCell id="jrM-8Mynmm6wFJJVeg1S-78" value="缓冲时间：18" style="text;html=1;strokeColor=none;fillColor=none;align=center;verticalAlign=middle;whiteSpace=wrap;rounded=0;" vertex="1" parent="1">
          <mxGeometry x="430" y="188" width="81" height="20" as="geometry" />
        </mxCell>
        <mxCell id="jrM-8Mynmm6wFJJVeg1S-118" style="rounded=0;orthogonalLoop=1;jettySize=auto;html=1;exitX=0.991;exitY=0.556;exitDx=0;exitDy=0;entryX=0;entryY=0.5;entryDx=0;entryDy=0;exitPerimeter=0;" edge="1" parent="1" source="jrM-8Mynmm6wFJJVeg1S-80" target="jrM-8Mynmm6wFJJVeg1S-99">
          <mxGeometry relative="1" as="geometry" />
        </mxCell>
        <mxCell id="jrM-8Mynmm6wFJJVeg1S-140" style="rounded=0;orthogonalLoop=1;jettySize=auto;html=1;exitX=1;exitY=0.5;exitDx=0;exitDy=0;entryX=0;entryY=0.5;entryDx=0;entryDy=0;" edge="1" parent="1" source="jrM-8Mynmm6wFJJVeg1S-80" target="jrM-8Mynmm6wFJJVeg1S-119">
          <mxGeometry relative="1" as="geometry" />
        </mxCell>
        <mxCell id="jrM-8Mynmm6wFJJVeg1S-80" value="" style="rounded=0;whiteSpace=wrap;html=1;" vertex="1" parent="1">
          <mxGeometry x="142" y="370" width="230" height="90" as="geometry" />
        </mxCell>
        <mxCell id="jrM-8Mynmm6wFJJVeg1S-81" value="D.编程实现" style="text;html=1;strokeColor=none;fillColor=none;align=center;verticalAlign=middle;whiteSpace=wrap;rounded=0;" vertex="1" parent="1">
          <mxGeometry x="213.5" y="370" width="87" height="20" as="geometry" />
        </mxCell>
        <mxCell id="jrM-8Mynmm6wFJJVeg1S-82" style="edgeStyle=orthogonalEdgeStyle;rounded=0;orthogonalLoop=1;jettySize=auto;html=1;exitX=0.5;exitY=1;exitDx=0;exitDy=0;fontSize=12;" edge="1" parent="1" source="jrM-8Mynmm6wFJJVeg1S-81" target="jrM-8Mynmm6wFJJVeg1S-81">
          <mxGeometry relative="1" as="geometry" />
        </mxCell>
        <mxCell id="jrM-8Mynmm6wFJJVeg1S-83" value="" style="shape=table;startSize=0;container=1;collapsible=0;childLayout=tableLayout;fontSize=12;" vertex="1" parent="1">
          <mxGeometry x="256" y="392" width="110" height="61" as="geometry" />
        </mxCell>
        <mxCell id="jrM-8Mynmm6wFJJVeg1S-84" value="" style="shape=tableRow;horizontal=0;startSize=0;swimlaneHead=0;swimlaneBody=0;strokeColor=inherit;top=0;left=0;bottom=0;right=0;collapsible=0;dropTarget=0;fillColor=none;points=[[0,0.5],[1,0.5]];portConstraint=eastwest;fontSize=12;" vertex="1" parent="jrM-8Mynmm6wFJJVeg1S-83">
          <mxGeometry width="110" height="21" as="geometry" />
        </mxCell>
        <mxCell id="jrM-8Mynmm6wFJJVeg1S-85" value="" style="shape=partialRectangle;html=1;whiteSpace=wrap;connectable=0;strokeColor=inherit;overflow=hidden;fillColor=none;top=0;left=0;bottom=0;right=0;pointerEvents=1;fontSize=12;" vertex="1" parent="jrM-8Mynmm6wFJJVeg1S-84">
          <mxGeometry width="35" height="21" as="geometry">
            <mxRectangle width="35" height="21" as="alternateBounds" />
          </mxGeometry>
        </mxCell>
        <mxCell id="jrM-8Mynmm6wFJJVeg1S-86" value="&lt;font style=&quot;font-size: 12px;&quot;&gt;开始&lt;/font&gt;" style="shape=partialRectangle;html=1;whiteSpace=wrap;connectable=0;strokeColor=inherit;overflow=hidden;fillColor=none;top=0;left=0;bottom=0;right=0;pointerEvents=1;fontSize=12;" vertex="1" parent="jrM-8Mynmm6wFJJVeg1S-84">
          <mxGeometry x="35" width="40" height="21" as="geometry">
            <mxRectangle width="40" height="21" as="alternateBounds" />
          </mxGeometry>
        </mxCell>
        <mxCell id="jrM-8Mynmm6wFJJVeg1S-87" value="&lt;font style=&quot;font-size: 12px;&quot;&gt;结束&lt;/font&gt;" style="shape=partialRectangle;html=1;whiteSpace=wrap;connectable=0;strokeColor=inherit;overflow=hidden;fillColor=none;top=0;left=0;bottom=0;right=0;pointerEvents=1;fontSize=12;" vertex="1" parent="jrM-8Mynmm6wFJJVeg1S-84">
          <mxGeometry x="75" width="35" height="21" as="geometry">
            <mxRectangle width="35" height="21" as="alternateBounds" />
          </mxGeometry>
        </mxCell>
        <mxCell id="jrM-8Mynmm6wFJJVeg1S-88" value="" style="shape=tableRow;horizontal=0;startSize=0;swimlaneHead=0;swimlaneBody=0;strokeColor=inherit;top=0;left=0;bottom=0;right=0;collapsible=0;dropTarget=0;fillColor=none;points=[[0,0.5],[1,0.5]];portConstraint=eastwest;fontSize=12;" vertex="1" parent="jrM-8Mynmm6wFJJVeg1S-83">
          <mxGeometry y="21" width="110" height="20" as="geometry" />
        </mxCell>
        <mxCell id="jrM-8Mynmm6wFJJVeg1S-89" value="&lt;font style=&quot;font-size: 12px;&quot;&gt;最早&lt;/font&gt;" style="shape=partialRectangle;html=1;whiteSpace=wrap;connectable=0;strokeColor=inherit;overflow=hidden;fillColor=none;top=0;left=0;bottom=0;right=0;pointerEvents=1;fontSize=12;" vertex="1" parent="jrM-8Mynmm6wFJJVeg1S-88">
          <mxGeometry width="35" height="20" as="geometry">
            <mxRectangle width="35" height="20" as="alternateBounds" />
          </mxGeometry>
        </mxCell>
        <mxCell id="jrM-8Mynmm6wFJJVeg1S-90" value="&lt;font style=&quot;font-size: 12px;&quot;&gt;16&lt;/font&gt;" style="shape=partialRectangle;html=1;whiteSpace=wrap;connectable=0;strokeColor=inherit;overflow=hidden;fillColor=none;top=0;left=0;bottom=0;right=0;pointerEvents=1;fontSize=12;" vertex="1" parent="jrM-8Mynmm6wFJJVeg1S-88">
          <mxGeometry x="35" width="40" height="20" as="geometry">
            <mxRectangle width="40" height="20" as="alternateBounds" />
          </mxGeometry>
        </mxCell>
        <mxCell id="jrM-8Mynmm6wFJJVeg1S-91" value="36" style="shape=partialRectangle;html=1;whiteSpace=wrap;connectable=0;strokeColor=inherit;overflow=hidden;fillColor=none;top=0;left=0;bottom=0;right=0;pointerEvents=1;fontSize=12;" vertex="1" parent="jrM-8Mynmm6wFJJVeg1S-88">
          <mxGeometry x="75" width="35" height="20" as="geometry">
            <mxRectangle width="35" height="20" as="alternateBounds" />
          </mxGeometry>
        </mxCell>
        <mxCell id="jrM-8Mynmm6wFJJVeg1S-92" value="" style="shape=tableRow;horizontal=0;startSize=0;swimlaneHead=0;swimlaneBody=0;strokeColor=inherit;top=0;left=0;bottom=0;right=0;collapsible=0;dropTarget=0;fillColor=none;points=[[0,0.5],[1,0.5]];portConstraint=eastwest;fontSize=12;" vertex="1" parent="jrM-8Mynmm6wFJJVeg1S-83">
          <mxGeometry y="41" width="110" height="20" as="geometry" />
        </mxCell>
        <mxCell id="jrM-8Mynmm6wFJJVeg1S-93" value="&lt;font style=&quot;font-size: 12px;&quot;&gt;最晚&lt;/font&gt;" style="shape=partialRectangle;html=1;whiteSpace=wrap;connectable=0;strokeColor=inherit;overflow=hidden;fillColor=none;top=0;left=0;bottom=0;right=0;pointerEvents=1;fontSize=12;" vertex="1" parent="jrM-8Mynmm6wFJJVeg1S-92">
          <mxGeometry width="35" height="20" as="geometry">
            <mxRectangle width="35" height="20" as="alternateBounds" />
          </mxGeometry>
        </mxCell>
        <mxCell id="jrM-8Mynmm6wFJJVeg1S-94" value="19" style="shape=partialRectangle;html=1;whiteSpace=wrap;connectable=0;strokeColor=inherit;overflow=hidden;fillColor=none;top=0;left=0;bottom=0;right=0;pointerEvents=1;fontSize=12;" vertex="1" parent="jrM-8Mynmm6wFJJVeg1S-92">
          <mxGeometry x="35" width="40" height="20" as="geometry">
            <mxRectangle width="40" height="20" as="alternateBounds" />
          </mxGeometry>
        </mxCell>
        <mxCell id="jrM-8Mynmm6wFJJVeg1S-95" value="39" style="shape=partialRectangle;html=1;whiteSpace=wrap;connectable=0;strokeColor=inherit;overflow=hidden;fillColor=none;top=0;left=0;bottom=0;right=0;pointerEvents=1;fontSize=12;" vertex="1" parent="jrM-8Mynmm6wFJJVeg1S-92">
          <mxGeometry x="75" width="35" height="20" as="geometry">
            <mxRectangle width="35" height="20" as="alternateBounds" />
          </mxGeometry>
        </mxCell>
        <mxCell id="jrM-8Mynmm6wFJJVeg1S-96" value="持续时间：20" style="text;html=1;strokeColor=none;fillColor=none;align=center;verticalAlign=middle;whiteSpace=wrap;rounded=0;" vertex="1" parent="1">
          <mxGeometry x="152" y="402" width="81" height="20" as="geometry" />
        </mxCell>
        <mxCell id="jrM-8Mynmm6wFJJVeg1S-97" value="缓冲时间：3" style="text;html=1;strokeColor=none;fillColor=none;align=center;verticalAlign=middle;whiteSpace=wrap;rounded=0;" vertex="1" parent="1">
          <mxGeometry x="152" y="426" width="81" height="20" as="geometry" />
        </mxCell>
        <mxCell id="jrM-8Mynmm6wFJJVeg1S-160" style="rounded=0;orthogonalLoop=1;jettySize=auto;html=1;exitX=1;exitY=0.5;exitDx=0;exitDy=0;entryX=0.5;entryY=0;entryDx=0;entryDy=0;" edge="1" parent="1" source="jrM-8Mynmm6wFJJVeg1S-99" target="jrM-8Mynmm6wFJJVeg1S-142">
          <mxGeometry relative="1" as="geometry" />
        </mxCell>
        <mxCell id="jrM-8Mynmm6wFJJVeg1S-99" value="" style="rounded=0;whiteSpace=wrap;html=1;" vertex="1" parent="1">
          <mxGeometry x="420" y="247" width="230" height="90" as="geometry" />
        </mxCell>
        <mxCell id="jrM-8Mynmm6wFJJVeg1S-100" value="E.软件测试" style="text;html=1;strokeColor=none;fillColor=none;align=center;verticalAlign=middle;whiteSpace=wrap;rounded=0;" vertex="1" parent="1">
          <mxGeometry x="491.5" y="247" width="87" height="20" as="geometry" />
        </mxCell>
        <mxCell id="jrM-8Mynmm6wFJJVeg1S-101" style="edgeStyle=orthogonalEdgeStyle;rounded=0;orthogonalLoop=1;jettySize=auto;html=1;exitX=0.5;exitY=1;exitDx=0;exitDy=0;fontSize=12;" edge="1" parent="1" source="jrM-8Mynmm6wFJJVeg1S-100" target="jrM-8Mynmm6wFJJVeg1S-100">
          <mxGeometry relative="1" as="geometry" />
        </mxCell>
        <mxCell id="jrM-8Mynmm6wFJJVeg1S-102" value="" style="shape=table;startSize=0;container=1;collapsible=0;childLayout=tableLayout;fontSize=12;" vertex="1" parent="1">
          <mxGeometry x="534" y="269" width="110" height="61" as="geometry" />
        </mxCell>
        <mxCell id="jrM-8Mynmm6wFJJVeg1S-103" value="" style="shape=tableRow;horizontal=0;startSize=0;swimlaneHead=0;swimlaneBody=0;strokeColor=inherit;top=0;left=0;bottom=0;right=0;collapsible=0;dropTarget=0;fillColor=none;points=[[0,0.5],[1,0.5]];portConstraint=eastwest;fontSize=12;" vertex="1" parent="jrM-8Mynmm6wFJJVeg1S-102">
          <mxGeometry width="110" height="21" as="geometry" />
        </mxCell>
        <mxCell id="jrM-8Mynmm6wFJJVeg1S-104" value="" style="shape=partialRectangle;html=1;whiteSpace=wrap;connectable=0;strokeColor=inherit;overflow=hidden;fillColor=none;top=0;left=0;bottom=0;right=0;pointerEvents=1;fontSize=12;" vertex="1" parent="jrM-8Mynmm6wFJJVeg1S-103">
          <mxGeometry width="35" height="21" as="geometry">
            <mxRectangle width="35" height="21" as="alternateBounds" />
          </mxGeometry>
        </mxCell>
        <mxCell id="jrM-8Mynmm6wFJJVeg1S-105" value="&lt;font style=&quot;font-size: 12px;&quot;&gt;开始&lt;/font&gt;" style="shape=partialRectangle;html=1;whiteSpace=wrap;connectable=0;strokeColor=inherit;overflow=hidden;fillColor=none;top=0;left=0;bottom=0;right=0;pointerEvents=1;fontSize=12;" vertex="1" parent="jrM-8Mynmm6wFJJVeg1S-103">
          <mxGeometry x="35" width="40" height="21" as="geometry">
            <mxRectangle width="40" height="21" as="alternateBounds" />
          </mxGeometry>
        </mxCell>
        <mxCell id="jrM-8Mynmm6wFJJVeg1S-106" value="&lt;font style=&quot;font-size: 12px;&quot;&gt;结束&lt;/font&gt;" style="shape=partialRectangle;html=1;whiteSpace=wrap;connectable=0;strokeColor=inherit;overflow=hidden;fillColor=none;top=0;left=0;bottom=0;right=0;pointerEvents=1;fontSize=12;" vertex="1" parent="jrM-8Mynmm6wFJJVeg1S-103">
          <mxGeometry x="75" width="35" height="21" as="geometry">
            <mxRectangle width="35" height="21" as="alternateBounds" />
          </mxGeometry>
        </mxCell>
        <mxCell id="jrM-8Mynmm6wFJJVeg1S-107" value="" style="shape=tableRow;horizontal=0;startSize=0;swimlaneHead=0;swimlaneBody=0;strokeColor=inherit;top=0;left=0;bottom=0;right=0;collapsible=0;dropTarget=0;fillColor=none;points=[[0,0.5],[1,0.5]];portConstraint=eastwest;fontSize=12;" vertex="1" parent="jrM-8Mynmm6wFJJVeg1S-102">
          <mxGeometry y="21" width="110" height="20" as="geometry" />
        </mxCell>
        <mxCell id="jrM-8Mynmm6wFJJVeg1S-108" value="&lt;font style=&quot;font-size: 12px;&quot;&gt;最早&lt;/font&gt;" style="shape=partialRectangle;html=1;whiteSpace=wrap;connectable=0;strokeColor=inherit;overflow=hidden;fillColor=none;top=0;left=0;bottom=0;right=0;pointerEvents=1;fontSize=12;" vertex="1" parent="jrM-8Mynmm6wFJJVeg1S-107">
          <mxGeometry width="35" height="20" as="geometry">
            <mxRectangle width="35" height="20" as="alternateBounds" />
          </mxGeometry>
        </mxCell>
        <mxCell id="jrM-8Mynmm6wFJJVeg1S-109" value="&lt;font style=&quot;font-size: 12px;&quot;&gt;36&lt;/font&gt;" style="shape=partialRectangle;html=1;whiteSpace=wrap;connectable=0;strokeColor=inherit;overflow=hidden;fillColor=none;top=0;left=0;bottom=0;right=0;pointerEvents=1;fontSize=12;" vertex="1" parent="jrM-8Mynmm6wFJJVeg1S-107">
          <mxGeometry x="35" width="40" height="20" as="geometry">
            <mxRectangle width="40" height="20" as="alternateBounds" />
          </mxGeometry>
        </mxCell>
        <mxCell id="jrM-8Mynmm6wFJJVeg1S-110" value="46" style="shape=partialRectangle;html=1;whiteSpace=wrap;connectable=0;strokeColor=inherit;overflow=hidden;fillColor=none;top=0;left=0;bottom=0;right=0;pointerEvents=1;fontSize=12;" vertex="1" parent="jrM-8Mynmm6wFJJVeg1S-107">
          <mxGeometry x="75" width="35" height="20" as="geometry">
            <mxRectangle width="35" height="20" as="alternateBounds" />
          </mxGeometry>
        </mxCell>
        <mxCell id="jrM-8Mynmm6wFJJVeg1S-111" value="" style="shape=tableRow;horizontal=0;startSize=0;swimlaneHead=0;swimlaneBody=0;strokeColor=inherit;top=0;left=0;bottom=0;right=0;collapsible=0;dropTarget=0;fillColor=none;points=[[0,0.5],[1,0.5]];portConstraint=eastwest;fontSize=12;" vertex="1" parent="jrM-8Mynmm6wFJJVeg1S-102">
          <mxGeometry y="41" width="110" height="20" as="geometry" />
        </mxCell>
        <mxCell id="jrM-8Mynmm6wFJJVeg1S-112" value="&lt;font style=&quot;font-size: 12px;&quot;&gt;最晚&lt;/font&gt;" style="shape=partialRectangle;html=1;whiteSpace=wrap;connectable=0;strokeColor=inherit;overflow=hidden;fillColor=none;top=0;left=0;bottom=0;right=0;pointerEvents=1;fontSize=12;" vertex="1" parent="jrM-8Mynmm6wFJJVeg1S-111">
          <mxGeometry width="35" height="20" as="geometry">
            <mxRectangle width="35" height="20" as="alternateBounds" />
          </mxGeometry>
        </mxCell>
        <mxCell id="jrM-8Mynmm6wFJJVeg1S-113" value="39" style="shape=partialRectangle;html=1;whiteSpace=wrap;connectable=0;strokeColor=inherit;overflow=hidden;fillColor=none;top=0;left=0;bottom=0;right=0;pointerEvents=1;fontSize=12;" vertex="1" parent="jrM-8Mynmm6wFJJVeg1S-111">
          <mxGeometry x="35" width="40" height="20" as="geometry">
            <mxRectangle width="40" height="20" as="alternateBounds" />
          </mxGeometry>
        </mxCell>
        <mxCell id="jrM-8Mynmm6wFJJVeg1S-114" value="&lt;font style=&quot;font-size: 12px;&quot;&gt;46&lt;/font&gt;" style="shape=partialRectangle;html=1;whiteSpace=wrap;connectable=0;strokeColor=inherit;overflow=hidden;fillColor=none;top=0;left=0;bottom=0;right=0;pointerEvents=1;fontSize=12;" vertex="1" parent="jrM-8Mynmm6wFJJVeg1S-111">
          <mxGeometry x="75" width="35" height="20" as="geometry">
            <mxRectangle width="35" height="20" as="alternateBounds" />
          </mxGeometry>
        </mxCell>
        <mxCell id="jrM-8Mynmm6wFJJVeg1S-115" value="持续时间：10" style="text;html=1;strokeColor=none;fillColor=none;align=center;verticalAlign=middle;whiteSpace=wrap;rounded=0;" vertex="1" parent="1">
          <mxGeometry x="430" y="279" width="81" height="20" as="geometry" />
        </mxCell>
        <mxCell id="jrM-8Mynmm6wFJJVeg1S-116" value="缓冲时间：0" style="text;html=1;strokeColor=none;fillColor=none;align=center;verticalAlign=middle;whiteSpace=wrap;rounded=0;" vertex="1" parent="1">
          <mxGeometry x="427" y="302" width="81" height="20" as="geometry" />
        </mxCell>
        <mxCell id="jrM-8Mynmm6wFJJVeg1S-159" style="rounded=0;orthogonalLoop=1;jettySize=auto;html=1;exitX=1;exitY=0.5;exitDx=0;exitDy=0;entryX=0;entryY=0.5;entryDx=0;entryDy=0;fontSize=12;" edge="1" parent="1" source="jrM-8Mynmm6wFJJVeg1S-119" target="jrM-8Mynmm6wFJJVeg1S-141">
          <mxGeometry relative="1" as="geometry" />
        </mxCell>
        <mxCell id="jrM-8Mynmm6wFJJVeg1S-119" value="" style="rounded=0;whiteSpace=wrap;html=1;" vertex="1" parent="1">
          <mxGeometry x="420" y="370" width="230" height="90" as="geometry" />
        </mxCell>
        <mxCell id="jrM-8Mynmm6wFJJVeg1S-120" value="F.编写用户手册" style="text;html=1;strokeColor=none;fillColor=none;align=center;verticalAlign=middle;whiteSpace=wrap;rounded=0;" vertex="1" parent="1">
          <mxGeometry x="491.5" y="370" width="87" height="20" as="geometry" />
        </mxCell>
        <mxCell id="jrM-8Mynmm6wFJJVeg1S-121" style="edgeStyle=orthogonalEdgeStyle;rounded=0;orthogonalLoop=1;jettySize=auto;html=1;exitX=0.5;exitY=1;exitDx=0;exitDy=0;fontSize=12;" edge="1" parent="1" source="jrM-8Mynmm6wFJJVeg1S-120" target="jrM-8Mynmm6wFJJVeg1S-120">
          <mxGeometry relative="1" as="geometry" />
        </mxCell>
        <mxCell id="jrM-8Mynmm6wFJJVeg1S-122" value="" style="shape=table;startSize=0;container=1;collapsible=0;childLayout=tableLayout;fontSize=12;" vertex="1" parent="1">
          <mxGeometry x="534" y="392" width="110" height="61" as="geometry" />
        </mxCell>
        <mxCell id="jrM-8Mynmm6wFJJVeg1S-123" value="" style="shape=tableRow;horizontal=0;startSize=0;swimlaneHead=0;swimlaneBody=0;strokeColor=inherit;top=0;left=0;bottom=0;right=0;collapsible=0;dropTarget=0;fillColor=none;points=[[0,0.5],[1,0.5]];portConstraint=eastwest;fontSize=12;" vertex="1" parent="jrM-8Mynmm6wFJJVeg1S-122">
          <mxGeometry width="110" height="21" as="geometry" />
        </mxCell>
        <mxCell id="jrM-8Mynmm6wFJJVeg1S-124" value="" style="shape=partialRectangle;html=1;whiteSpace=wrap;connectable=0;strokeColor=inherit;overflow=hidden;fillColor=none;top=0;left=0;bottom=0;right=0;pointerEvents=1;fontSize=12;" vertex="1" parent="jrM-8Mynmm6wFJJVeg1S-123">
          <mxGeometry width="35" height="21" as="geometry">
            <mxRectangle width="35" height="21" as="alternateBounds" />
          </mxGeometry>
        </mxCell>
        <mxCell id="jrM-8Mynmm6wFJJVeg1S-125" value="&lt;font style=&quot;font-size: 12px;&quot;&gt;开始&lt;/font&gt;" style="shape=partialRectangle;html=1;whiteSpace=wrap;connectable=0;strokeColor=inherit;overflow=hidden;fillColor=none;top=0;left=0;bottom=0;right=0;pointerEvents=1;fontSize=12;" vertex="1" parent="jrM-8Mynmm6wFJJVeg1S-123">
          <mxGeometry x="35" width="40" height="21" as="geometry">
            <mxRectangle width="40" height="21" as="alternateBounds" />
          </mxGeometry>
        </mxCell>
        <mxCell id="jrM-8Mynmm6wFJJVeg1S-126" value="&lt;font style=&quot;font-size: 12px;&quot;&gt;结束&lt;/font&gt;" style="shape=partialRectangle;html=1;whiteSpace=wrap;connectable=0;strokeColor=inherit;overflow=hidden;fillColor=none;top=0;left=0;bottom=0;right=0;pointerEvents=1;fontSize=12;" vertex="1" parent="jrM-8Mynmm6wFJJVeg1S-123">
          <mxGeometry x="75" width="35" height="21" as="geometry">
            <mxRectangle width="35" height="21" as="alternateBounds" />
          </mxGeometry>
        </mxCell>
        <mxCell id="jrM-8Mynmm6wFJJVeg1S-127" value="" style="shape=tableRow;horizontal=0;startSize=0;swimlaneHead=0;swimlaneBody=0;strokeColor=inherit;top=0;left=0;bottom=0;right=0;collapsible=0;dropTarget=0;fillColor=none;points=[[0,0.5],[1,0.5]];portConstraint=eastwest;fontSize=12;" vertex="1" parent="jrM-8Mynmm6wFJJVeg1S-122">
          <mxGeometry y="21" width="110" height="20" as="geometry" />
        </mxCell>
        <mxCell id="jrM-8Mynmm6wFJJVeg1S-128" value="&lt;font style=&quot;font-size: 12px;&quot;&gt;最早&lt;/font&gt;" style="shape=partialRectangle;html=1;whiteSpace=wrap;connectable=0;strokeColor=inherit;overflow=hidden;fillColor=none;top=0;left=0;bottom=0;right=0;pointerEvents=1;fontSize=12;" vertex="1" parent="jrM-8Mynmm6wFJJVeg1S-127">
          <mxGeometry width="35" height="20" as="geometry">
            <mxRectangle width="35" height="20" as="alternateBounds" />
          </mxGeometry>
        </mxCell>
        <mxCell id="jrM-8Mynmm6wFJJVeg1S-129" value="&lt;font style=&quot;font-size: 12px;&quot;&gt;36&lt;/font&gt;" style="shape=partialRectangle;html=1;whiteSpace=wrap;connectable=0;strokeColor=inherit;overflow=hidden;fillColor=none;top=0;left=0;bottom=0;right=0;pointerEvents=1;fontSize=12;" vertex="1" parent="jrM-8Mynmm6wFJJVeg1S-127">
          <mxGeometry x="35" width="40" height="20" as="geometry">
            <mxRectangle width="40" height="20" as="alternateBounds" />
          </mxGeometry>
        </mxCell>
        <mxCell id="jrM-8Mynmm6wFJJVeg1S-130" value="38" style="shape=partialRectangle;html=1;whiteSpace=wrap;connectable=0;strokeColor=inherit;overflow=hidden;fillColor=none;top=0;left=0;bottom=0;right=0;pointerEvents=1;fontSize=12;" vertex="1" parent="jrM-8Mynmm6wFJJVeg1S-127">
          <mxGeometry x="75" width="35" height="20" as="geometry">
            <mxRectangle width="35" height="20" as="alternateBounds" />
          </mxGeometry>
        </mxCell>
        <mxCell id="jrM-8Mynmm6wFJJVeg1S-131" value="" style="shape=tableRow;horizontal=0;startSize=0;swimlaneHead=0;swimlaneBody=0;strokeColor=inherit;top=0;left=0;bottom=0;right=0;collapsible=0;dropTarget=0;fillColor=none;points=[[0,0.5],[1,0.5]];portConstraint=eastwest;fontSize=12;" vertex="1" parent="jrM-8Mynmm6wFJJVeg1S-122">
          <mxGeometry y="41" width="110" height="20" as="geometry" />
        </mxCell>
        <mxCell id="jrM-8Mynmm6wFJJVeg1S-132" value="&lt;font style=&quot;font-size: 12px;&quot;&gt;最晚&lt;/font&gt;" style="shape=partialRectangle;html=1;whiteSpace=wrap;connectable=0;strokeColor=inherit;overflow=hidden;fillColor=none;top=0;left=0;bottom=0;right=0;pointerEvents=1;fontSize=12;" vertex="1" parent="jrM-8Mynmm6wFJJVeg1S-131">
          <mxGeometry width="35" height="20" as="geometry">
            <mxRectangle width="35" height="20" as="alternateBounds" />
          </mxGeometry>
        </mxCell>
        <mxCell id="jrM-8Mynmm6wFJJVeg1S-133" value="44" style="shape=partialRectangle;html=1;whiteSpace=wrap;connectable=0;strokeColor=inherit;overflow=hidden;fillColor=none;top=0;left=0;bottom=0;right=0;pointerEvents=1;fontSize=12;" vertex="1" parent="jrM-8Mynmm6wFJJVeg1S-131">
          <mxGeometry x="35" width="40" height="20" as="geometry">
            <mxRectangle width="40" height="20" as="alternateBounds" />
          </mxGeometry>
        </mxCell>
        <mxCell id="jrM-8Mynmm6wFJJVeg1S-134" value="&lt;font style=&quot;font-size: 12px;&quot;&gt;46&lt;/font&gt;" style="shape=partialRectangle;html=1;whiteSpace=wrap;connectable=0;strokeColor=inherit;overflow=hidden;fillColor=none;top=0;left=0;bottom=0;right=0;pointerEvents=1;fontSize=12;" vertex="1" parent="jrM-8Mynmm6wFJJVeg1S-131">
          <mxGeometry x="75" width="35" height="20" as="geometry">
            <mxRectangle width="35" height="20" as="alternateBounds" />
          </mxGeometry>
        </mxCell>
        <mxCell id="jrM-8Mynmm6wFJJVeg1S-135" value="持续时间：2" style="text;html=1;strokeColor=none;fillColor=none;align=center;verticalAlign=middle;whiteSpace=wrap;rounded=0;" vertex="1" parent="1">
          <mxGeometry x="430" y="402" width="81" height="20" as="geometry" />
        </mxCell>
        <mxCell id="jrM-8Mynmm6wFJJVeg1S-136" value="缓冲时间：8" style="text;html=1;strokeColor=none;fillColor=none;align=center;verticalAlign=middle;whiteSpace=wrap;rounded=0;" vertex="1" parent="1">
          <mxGeometry x="430" y="426" width="81" height="20" as="geometry" />
        </mxCell>
        <mxCell id="jrM-8Mynmm6wFJJVeg1S-161" style="edgeStyle=orthogonalEdgeStyle;rounded=0;orthogonalLoop=1;jettySize=auto;html=1;exitX=0.5;exitY=1;exitDx=0;exitDy=0;entryX=0.5;entryY=0;entryDx=0;entryDy=0;fontSize=12;" edge="1" parent="1" source="jrM-8Mynmm6wFJJVeg1S-141" target="jrM-8Mynmm6wFJJVeg1S-2">
          <mxGeometry relative="1" as="geometry" />
        </mxCell>
        <mxCell id="jrM-8Mynmm6wFJJVeg1S-141" value="" style="rounded=0;whiteSpace=wrap;html=1;" vertex="1" parent="1">
          <mxGeometry x="680" y="370" width="230" height="90" as="geometry" />
        </mxCell>
        <mxCell id="jrM-8Mynmm6wFJJVeg1S-142" value="G.调试软件系统" style="text;html=1;strokeColor=none;fillColor=none;align=center;verticalAlign=middle;whiteSpace=wrap;rounded=0;" vertex="1" parent="1">
          <mxGeometry x="751.5" y="370" width="87" height="20" as="geometry" />
        </mxCell>
        <mxCell id="jrM-8Mynmm6wFJJVeg1S-143" style="edgeStyle=orthogonalEdgeStyle;rounded=0;orthogonalLoop=1;jettySize=auto;html=1;exitX=0.5;exitY=1;exitDx=0;exitDy=0;fontSize=12;" edge="1" parent="1" source="jrM-8Mynmm6wFJJVeg1S-142" target="jrM-8Mynmm6wFJJVeg1S-142">
          <mxGeometry relative="1" as="geometry" />
        </mxCell>
        <mxCell id="jrM-8Mynmm6wFJJVeg1S-144" value="" style="shape=table;startSize=0;container=1;collapsible=0;childLayout=tableLayout;fontSize=12;" vertex="1" parent="1">
          <mxGeometry x="794" y="392" width="110" height="61" as="geometry" />
        </mxCell>
        <mxCell id="jrM-8Mynmm6wFJJVeg1S-145" value="" style="shape=tableRow;horizontal=0;startSize=0;swimlaneHead=0;swimlaneBody=0;strokeColor=inherit;top=0;left=0;bottom=0;right=0;collapsible=0;dropTarget=0;fillColor=none;points=[[0,0.5],[1,0.5]];portConstraint=eastwest;fontSize=12;" vertex="1" parent="jrM-8Mynmm6wFJJVeg1S-144">
          <mxGeometry width="110" height="21" as="geometry" />
        </mxCell>
        <mxCell id="jrM-8Mynmm6wFJJVeg1S-146" value="" style="shape=partialRectangle;html=1;whiteSpace=wrap;connectable=0;strokeColor=inherit;overflow=hidden;fillColor=none;top=0;left=0;bottom=0;right=0;pointerEvents=1;fontSize=12;" vertex="1" parent="jrM-8Mynmm6wFJJVeg1S-145">
          <mxGeometry width="35" height="21" as="geometry">
            <mxRectangle width="35" height="21" as="alternateBounds" />
          </mxGeometry>
        </mxCell>
        <mxCell id="jrM-8Mynmm6wFJJVeg1S-147" value="&lt;font style=&quot;font-size: 12px;&quot;&gt;开始&lt;/font&gt;" style="shape=partialRectangle;html=1;whiteSpace=wrap;connectable=0;strokeColor=inherit;overflow=hidden;fillColor=none;top=0;left=0;bottom=0;right=0;pointerEvents=1;fontSize=12;" vertex="1" parent="jrM-8Mynmm6wFJJVeg1S-145">
          <mxGeometry x="35" width="40" height="21" as="geometry">
            <mxRectangle width="40" height="21" as="alternateBounds" />
          </mxGeometry>
        </mxCell>
        <mxCell id="jrM-8Mynmm6wFJJVeg1S-148" value="&lt;font style=&quot;font-size: 12px;&quot;&gt;结束&lt;/font&gt;" style="shape=partialRectangle;html=1;whiteSpace=wrap;connectable=0;strokeColor=inherit;overflow=hidden;fillColor=none;top=0;left=0;bottom=0;right=0;pointerEvents=1;fontSize=12;" vertex="1" parent="jrM-8Mynmm6wFJJVeg1S-145">
          <mxGeometry x="75" width="35" height="21" as="geometry">
            <mxRectangle width="35" height="21" as="alternateBounds" />
          </mxGeometry>
        </mxCell>
        <mxCell id="jrM-8Mynmm6wFJJVeg1S-149" value="" style="shape=tableRow;horizontal=0;startSize=0;swimlaneHead=0;swimlaneBody=0;strokeColor=inherit;top=0;left=0;bottom=0;right=0;collapsible=0;dropTarget=0;fillColor=none;points=[[0,0.5],[1,0.5]];portConstraint=eastwest;fontSize=12;" vertex="1" parent="jrM-8Mynmm6wFJJVeg1S-144">
          <mxGeometry y="21" width="110" height="20" as="geometry" />
        </mxCell>
        <mxCell id="jrM-8Mynmm6wFJJVeg1S-150" value="&lt;font style=&quot;font-size: 12px;&quot;&gt;最早&lt;/font&gt;" style="shape=partialRectangle;html=1;whiteSpace=wrap;connectable=0;strokeColor=inherit;overflow=hidden;fillColor=none;top=0;left=0;bottom=0;right=0;pointerEvents=1;fontSize=12;" vertex="1" parent="jrM-8Mynmm6wFJJVeg1S-149">
          <mxGeometry width="35" height="20" as="geometry">
            <mxRectangle width="35" height="20" as="alternateBounds" />
          </mxGeometry>
        </mxCell>
        <mxCell id="jrM-8Mynmm6wFJJVeg1S-151" value="&lt;font style=&quot;font-size: 12px;&quot;&gt;46&lt;/font&gt;" style="shape=partialRectangle;html=1;whiteSpace=wrap;connectable=0;strokeColor=inherit;overflow=hidden;fillColor=none;top=0;left=0;bottom=0;right=0;pointerEvents=1;fontSize=12;" vertex="1" parent="jrM-8Mynmm6wFJJVeg1S-149">
          <mxGeometry x="35" width="40" height="20" as="geometry">
            <mxRectangle width="40" height="20" as="alternateBounds" />
          </mxGeometry>
        </mxCell>
        <mxCell id="jrM-8Mynmm6wFJJVeg1S-152" value="49" style="shape=partialRectangle;html=1;whiteSpace=wrap;connectable=0;strokeColor=inherit;overflow=hidden;fillColor=none;top=0;left=0;bottom=0;right=0;pointerEvents=1;fontSize=12;" vertex="1" parent="jrM-8Mynmm6wFJJVeg1S-149">
          <mxGeometry x="75" width="35" height="20" as="geometry">
            <mxRectangle width="35" height="20" as="alternateBounds" />
          </mxGeometry>
        </mxCell>
        <mxCell id="jrM-8Mynmm6wFJJVeg1S-153" value="" style="shape=tableRow;horizontal=0;startSize=0;swimlaneHead=0;swimlaneBody=0;strokeColor=inherit;top=0;left=0;bottom=0;right=0;collapsible=0;dropTarget=0;fillColor=none;points=[[0,0.5],[1,0.5]];portConstraint=eastwest;fontSize=12;" vertex="1" parent="jrM-8Mynmm6wFJJVeg1S-144">
          <mxGeometry y="41" width="110" height="20" as="geometry" />
        </mxCell>
        <mxCell id="jrM-8Mynmm6wFJJVeg1S-154" value="&lt;font style=&quot;font-size: 12px;&quot;&gt;最晚&lt;/font&gt;" style="shape=partialRectangle;html=1;whiteSpace=wrap;connectable=0;strokeColor=inherit;overflow=hidden;fillColor=none;top=0;left=0;bottom=0;right=0;pointerEvents=1;fontSize=12;" vertex="1" parent="jrM-8Mynmm6wFJJVeg1S-153">
          <mxGeometry width="35" height="20" as="geometry">
            <mxRectangle width="35" height="20" as="alternateBounds" />
          </mxGeometry>
        </mxCell>
        <mxCell id="jrM-8Mynmm6wFJJVeg1S-155" value="&lt;font style=&quot;font-size: 12px;&quot;&gt;46&lt;/font&gt;" style="shape=partialRectangle;html=1;whiteSpace=wrap;connectable=0;strokeColor=inherit;overflow=hidden;fillColor=none;top=0;left=0;bottom=0;right=0;pointerEvents=1;fontSize=12;" vertex="1" parent="jrM-8Mynmm6wFJJVeg1S-153">
          <mxGeometry x="35" width="40" height="20" as="geometry">
            <mxRectangle width="40" height="20" as="alternateBounds" />
          </mxGeometry>
        </mxCell>
        <mxCell id="jrM-8Mynmm6wFJJVeg1S-156" value="&lt;font style=&quot;font-size: 12px;&quot;&gt;49&lt;/font&gt;" style="shape=partialRectangle;html=1;whiteSpace=wrap;connectable=0;strokeColor=inherit;overflow=hidden;fillColor=none;top=0;left=0;bottom=0;right=0;pointerEvents=1;fontSize=12;" vertex="1" parent="jrM-8Mynmm6wFJJVeg1S-153">
          <mxGeometry x="75" width="35" height="20" as="geometry">
            <mxRectangle width="35" height="20" as="alternateBounds" />
          </mxGeometry>
        </mxCell>
        <mxCell id="jrM-8Mynmm6wFJJVeg1S-157" value="持续时间：3" style="text;html=1;strokeColor=none;fillColor=none;align=center;verticalAlign=middle;whiteSpace=wrap;rounded=0;" vertex="1" parent="1">
          <mxGeometry x="690" y="402" width="81" height="20" as="geometry" />
        </mxCell>
        <mxCell id="jrM-8Mynmm6wFJJVeg1S-158" value="缓冲时间：0" style="text;html=1;strokeColor=none;fillColor=none;align=center;verticalAlign=middle;whiteSpace=wrap;rounded=0;" vertex="1" parent="1">
          <mxGeometry x="690" y="426" width="81" height="20" as="geometry" />
        </mxCell>
      </root>
    </mxGraphModel>
  </diagram>
</mxfile>
